<svg xmlns="http://www.w3.org/2000/svg" width="176" height="40" fill="none"><path fill="#0D0D0D" d="m6.927 32.413-.003.003 6.47 5.677a7.43 7.43 0 0 0 4.83 1.902H40.41a5.39 5.39 0 0 0 4.364-1.936 5.33 5.33 0 0 0 1.079-4.632l-1.707-8.692a3.46 3.46 0 0 0-1.14-1.946l-.085-.072a2.84 2.84 0 0 0 .405-2.19l-1.71-8.708-.003-.012a7.3 7.3 0 0 0-2.387-4.017l-5.924-5.197A7.63 7.63 0 0 0 27.813 0h-.026l-22.2.064A5.39 5.39 0 0 0 1.226 2a5.33 5.33 0 0 0-1.08 4.63l4.24 21.646.006.026a7.57 7.57 0 0 0 2.535 4.11Z"/><path fill="#fff" d="M5.933 2.064A3.744 3.744 0 0 0 2.109 6.7l4.222 21.66a5.98 5.98 0 0 0 5.64 4.635h22.09a3.75 3.75 0 0 0 3.832-4.636l-1.705-8.762a1.99 1.99 0 0 0-1.88-1.538c-4.03.144-7.902.446-11.51 1.745L22 24.814a.493.493 0 0 1-.518.415.8.8 0 0 1-.685-.415l-2.725-5.01-5.449-1.72a.8.8 0 0 1-.533-.582.494.494 0 0 1 .31-.59l4.78-1.713.797-5.01a.5.5 0 0 1 .517-.422.8.8 0 0 1 .686.422l2.724 5.01a44.8 44.8 0 0 0 12.148 1.737 1.25 1.25 0 0 0 1.323-1.537L33.67 6.636A5.974 5.974 0 0 0 28.04 2z"/><path fill="#0D0D0D" d="M55.152 31V9.182h8.182q2.514 0 4.219.937 1.715.938 2.588 2.578.885 1.63.885 3.708 0 2.099-.885 3.729t-2.61 2.567q-1.725.927-4.25.927h-5.423v-3.25h4.89q1.47 0 2.408-.51.937-.512 1.384-1.407.459-.895.459-2.056c0-1.161-.153-1.456-.459-2.046q-.447-.884-1.395-1.374-.937-.5-2.418-.5h-3.623V31zm37.902-10.91q0 3.527-1.32 6.041-1.31 2.505-3.58 3.836-2.259 1.33-5.124 1.331-2.867 0-5.135-1.331-2.26-1.342-3.58-3.846-1.31-2.514-1.31-6.03 0-3.526 1.31-6.03 1.32-2.514 3.58-3.846 2.268-1.332 5.135-1.331 2.865 0 5.124 1.331 2.27 1.332 3.58 3.846 1.32 2.504 1.32 6.03Zm-3.973 0q0-2.482-.778-4.186-.767-1.714-2.13-2.589-1.364-.884-3.144-.884-1.779 0-3.142.884-1.364.874-2.142 2.59-.766 1.704-.767 4.186 0 2.483.767 4.197.779 1.705 2.142 2.59 1.363.872 3.142.873 1.78 0 3.143-.874 1.365-.884 2.131-2.589.777-1.715.778-4.197ZM95.89 31V9.182h8.182q2.514 0 4.219.873 1.715.875 2.588 2.45.885 1.567.885 3.655 0 2.098-.895 3.643-.885 1.535-2.61 2.376-1.726.83-4.24.83h-5.828v-3.28h5.295q1.47 0 2.408-.405.937-.415 1.385-1.204.458-.8.458-1.96c0-1.16-.153-1.435-.458-1.982q-.459-.831-1.396-1.257-.937-.437-2.418-.437h-3.622V31zm11.271-9.886L112.564 31h-4.411l-5.305-9.886zm6.382-8.619V9.182h17.408v3.313h-6.744V31h-3.92V12.495zM133.407 31V9.182h13.978v3.313H137.36v5.923h9.066v3.314h-9.066V31zm20.631-21.818V31h-3.952V9.182zm6.683 0 4.804 7.99h.171l4.826-7.99h4.506l-6.722 10.909L175.135 31h-4.581l-4.858-7.937h-.171L160.667 31h-4.559L163 20.09l-6.807-10.908z"/></svg>