<svg xmlns="http://www.w3.org/2000/svg" width="173" height="30" fill="none"><g fill="#0D0D0D" clip-path="url(#a)"><path d="M24.715 18c0-4.418-3.59-8-8.016-8h-6.68v8h6.68v10h8.015V18Z"/><path d="M0 18.667C0 23.82 4.187 28 9.351 28h5.344v-8H9.351a1.335 1.335 0 0 1-1.336-1.333V18H0zM16.699 0c9.96 0 18.035 8.059 18.035 18v10h-8.016V18c0-5.523-4.486-10-10.02-10H9.352c-.737 0-1.336.597-1.336 1.333V10H0v-.667C0 4.18 4.187 0 9.351 0zm84.944 7.678q-.784 0-1.316-.529a1.78 1.78 0 0 1-.531-1.31q0-.78.531-1.31.532-.53 1.316-.529.758 0 1.29.53.531.527.531 1.31 0 .78-.531 1.31a1.76 1.76 0 0 1-1.29.528m1.415 1.84v13.881h-2.883V9.518z"/><path fill-rule="evenodd" d="M110.842 9.946q-1.266.655-1.998 1.612v-2.04h-2.884V30h2.884v-8.616q.784.957 2.023 1.612 1.24.63 2.833.63 1.822 0 3.314-.907 1.518-.933 2.378-2.57.86-1.662.86-3.754 0-2.09-.86-3.703t-2.378-2.495q-1.492-.906-3.314-.906-1.594 0-2.858.655m5.868 3.98q.607 1.033.607 2.47 0 1.435-.607 2.518-.58 1.084-1.568 1.663a4.1 4.1 0 0 1-2.074.555 4.2 4.2 0 0 1-2.074-.555q-.962-.555-1.569-1.612-.582-1.083-.581-2.52 0-1.435.581-2.494.608-1.057 1.569-1.612a4.2 4.2 0 0 1 2.074-.554q1.113 0 2.074.554.987.53 1.568 1.587" clip-rule="evenodd"/><path d="M127.277 23.626q-1.644 0-2.96-.58-1.29-.604-2.048-1.612a4.06 4.06 0 0 1-.81-2.293h2.985q.076.882.834 1.487.785.58 1.948.58 1.215 0 1.872-.454.683-.48.683-1.21 0-.78-.759-1.159-.734-.378-2.352-.83-1.569-.43-2.555-.832a4.6 4.6 0 0 1-1.72-1.235q-.708-.831-.708-2.192 0-1.108.657-2.015.658-.933 1.872-1.461 1.24-.53 2.833-.53 2.378 0 3.819 1.21 1.468 1.185 1.569 3.25h-2.884q-.076-.933-.759-1.487-.682-.554-1.846-.554-1.138 0-1.745.428-.607.429-.607 1.134 0 .554.404.932.405.378.987.605.581.2 1.72.529 1.518.403 2.479.831a4.5 4.5 0 0 1 1.694 1.21q.709.806.734 2.141 0 1.185-.657 2.117-.658.931-1.873 1.46-1.188.53-2.807.53M170.192 9.97q-1.29-.68-2.934-.68a5.8 5.8 0 0 0-2.884.756q-1.34.73-1.972 1.99a4.84 4.84 0 0 0-2.024-2.04q-1.316-.705-2.985-.705-1.24 0-2.328.478a4.8 4.8 0 0 0-1.795 1.335V9.518h-2.884V23.4h2.884v-7.76q0-1.863.936-2.846.96-1.008 2.58-1.008 1.618 0 2.554 1.008.936.983.937 2.846v7.76h2.858v-7.76q0-1.863.936-2.846.96-1.008 2.58-1.008 1.618 0 2.555 1.008.936.983.936 2.846v7.76H173v-8.188q0-1.89-.759-3.225a4.83 4.83 0 0 0-2.049-2.015ZM147.467 23.4V9.517h-2.884v7.734q0 1.864-.961 2.872-.935.983-2.555.983-1.619 0-2.555-.983-.935-1.008-.935-2.872V9.518h-2.859v8.162q0 1.89.734 3.225.758 1.335 2.048 2.016 1.316.68 2.96.68 1.24 0 2.327-.479 1.113-.504 1.796-1.36v1.637z"/><path fill-rule="evenodd" d="M87.409 22.744q1.593.882 3.567.882 1.998 0 3.642-.882a6.7 6.7 0 0 0 2.631-2.545q.96-1.637.961-3.754 0-2.116-.936-3.753a6.45 6.45 0 0 0-2.555-2.52q-1.619-.881-3.617-.881t-3.617.881a6.45 6.45 0 0 0-2.555 2.52q-.936 1.637-.936 3.753 0 2.142.91 3.78a6.55 6.55 0 0 0 2.505 2.519m5.64-2.142q-.96.53-2.073.53-1.746 0-2.91-1.21-1.137-1.235-1.138-3.477 0-1.51.557-2.544.555-1.059 1.492-1.587a4.24 4.24 0 0 1 2.075-.53 4.23 4.23 0 0 1 2.074.53q.96.528 1.543 1.587.582 1.033.582 2.544t-.608 2.57q-.607 1.059-1.593 1.587Zm-20.828 2.174a6.55 6.55 0 0 1-2.563-2.552q-.91-1.636-.91-3.779 0-2.116.936-3.753a6.45 6.45 0 0 1 2.555-2.52q1.62-.881 3.617-.881 1.998 0 3.617.881a6.45 6.45 0 0 1 2.555 2.52q.936 1.637.936 3.753t-.961 3.754a6.7 6.7 0 0 1-2.631 2.545 7.45 7.45 0 0 1-3.09.864c1.37.624 3.452 1.128 4.62 1.41.501.122.834.202.873.235h.002v2.874H71.271v-2.874h6.054c-1.54-.346-3.631-1.484-5.104-2.477m3.508-1.644q1.114 0 2.075-.53.986-.528 1.593-1.587t.607-2.57-.581-2.544q-.583-1.059-1.543-1.587a4.23 4.23 0 0 0-2.074-.53q-1.113 0-2.075.53-.935.528-1.492 1.587-.556 1.033-.557 2.544 0 2.242 1.139 3.477 1.164 1.21 2.909 1.21Zm-18.811 1.612q1.593.882 3.566.882 2 0 3.643-.882a6.7 6.7 0 0 0 2.63-2.545q.962-1.637.962-3.754t-.936-3.753a6.45 6.45 0 0 0-2.555-2.52q-1.62-.881-3.617-.881-1.998 0-3.617.881a6.45 6.45 0 0 0-2.555 2.52q-.936 1.637-.936 3.753 0 2.142.91 3.78a6.55 6.55 0 0 0 2.505 2.519m5.64-2.142q-.96.53-2.074.53-1.745 0-2.909-1.21-1.138-1.235-1.138-3.477 0-1.51.557-2.544.556-1.059 1.492-1.587a4.23 4.23 0 0 1 2.074-.53q1.113 0 2.075.53.96.528 1.542 1.587.582 1.033.582 2.544t-.607 2.57-1.593 1.587Z" clip-rule="evenodd"/><path d="M46.969 21.081h5.944V23.4h-8.828V5.89h2.884v15.192Z"/></g><defs><clipPath id="a"><path fill="#fff" d="M0 0h173v30H0z"/></clipPath></defs></svg>