<svg xmlns="http://www.w3.org/2000/svg" width="152" height="30" fill="none"><g fill="#0D0D0D" clip-path="url(#a)"><path d="m13.05 1.993 2-1.993L30.1 15 15.05 30l-2-1.993L26.1 15z"/><path d="m10.44 4.594 2-1.992L24.878 15 12.439 27.4l-2-1.993L20.88 15z"/><path d="m0 15 9.83-9.797L19.658 15l-9.83 9.797-1.999-1.992L15.66 15 9.83 9.19 2 16.993z"/><path d="m9.83 10.406-2 1.992L10.44 15l-5.22 5.203 2 1.993L14.439 15z"/><path d="m4.61 19.594-2-1.992 4.588-4.574 2 1.993-4.589 4.573Zm141.675-9.966q1.453 0 2.594.602a4.27 4.27 0 0 1 1.811 1.783q.672 1.182.671 2.853v7.244h-2.527v-6.865q0-1.65-.827-2.518-.828-.892-2.259-.892c-1.431 0-1.714.297-2.281.892q-.828.87-.828 2.518v6.865h-2.527v-6.865q0-1.65-.827-2.518-.827-.892-2.258-.892t-2.281.892q-.828.87-.828 2.518v6.865h-2.549V9.83h2.549v1.404a4.24 4.24 0 0 1 1.588-1.181 5 5 0 0 1 2.057-.424q1.476 0 2.639.624a4.27 4.27 0 0 1 1.789 1.806q.559-1.114 1.745-1.761a5.1 5.1 0 0 1 2.549-.669Zm-17.497.202v12.28h-2.55v-1.448q-.603.758-1.587 1.203a5.05 5.05 0 0 1-2.058.424q-1.453 0-2.616-.602-1.141-.602-1.811-1.783-.65-1.182-.649-2.853V9.829h2.527v6.843q0 1.65.828 2.54.827.87 2.258.87c1.431 0 1.707-.29 2.259-.87q.849-.89.849-2.54V9.829zm-17.85 12.481q-1.453 0-2.616-.513-1.142-.535-1.811-1.426a3.6 3.6 0 0 1-.716-2.029h2.639q.066.78.737 1.316.693.512 1.723.512 1.073 0 1.654-.401.604-.423.604-1.07 0-.69-.671-1.025-.648-.334-2.079-.736-1.388-.378-2.259-.735a4.06 4.06 0 0 1-1.521-1.093q-.626-.735-.626-1.939 0-.98.582-1.783.581-.825 1.654-1.292 1.096-.47 2.505-.469 2.102 0 3.377 1.07 1.296 1.048 1.386 2.876h-2.549q-.068-.825-.671-1.316-.605-.49-1.632-.49-1.008 0-1.544.38-.536.378-.536 1.002 0 .49.357.825.359.334.872.535.515.178 1.521.468 1.342.357 2.192.735a4 4 0 0 1 1.498 1.07q.627.713.649 1.895 0 1.047-.582 1.872-.581.824-1.654 1.293-1.052.468-2.483.468M94.642 11.634q.647-.846 1.767-1.426 1.117-.58 2.526-.58 1.61 0 2.93.803 1.341.78 2.102 2.206.76 1.427.76 3.277c0 1.85-.253 2.34-.76 3.321a5.75 5.75 0 0 1-2.102 2.274 5.53 5.53 0 0 1-2.93.802q-1.409 0-2.505-.557-1.095-.58-1.788-1.427v7.623h-2.55V9.83h2.55v1.805Zm7.491 4.28q0-1.27-.537-2.184-.513-.937-1.386-1.405a3.6 3.6 0 0 0-1.834-.49q-.96 0-1.834.49-.849.49-1.386 1.427-.514.936-.514 2.207t.514 2.228q.537.937 1.386 1.427a3.7 3.7 0 0 0 1.834.49q.984 0 1.834-.49a3.67 3.67 0 0 0 1.386-1.471q.537-.959.537-2.23ZM88.276 8.202q-.694 0-1.163-.468a1.57 1.57 0 0 1-.47-1.16q0-.69.47-1.158.469-.468 1.163-.468.67 0 1.14.468t.47 1.159-.47 1.159a1.55 1.55 0 0 1-1.14.468m1.252 1.627V22.11h-2.55V9.83zM78.845 22.311q-1.744 0-3.153-.78a5.8 5.8 0 0 1-2.214-2.23q-.805-1.448-.805-3.342 0-1.873.828-3.322a5.7 5.7 0 0 1 2.258-2.229q1.431-.78 3.198-.78c1.767 0 2.244.26 3.198.78a5.7 5.7 0 0 1 2.258 2.23q.828 1.448.828 3.32 0 1.873-.85 3.322a5.94 5.94 0 0 1-2.325 2.25q-1.454.78-3.22.781Zm0-2.207a3.74 3.74 0 0 0 1.834-.468q.872-.468 1.41-1.404.536-.936.536-2.273t-.515-2.252q-.513-.936-1.364-1.404a3.74 3.74 0 0 0-1.834-.468 3.74 3.74 0 0 0-1.833.468q-.828.468-1.32 1.404-.492.915-.492 2.252 0 1.983 1.007 3.076 1.029 1.07 2.571 1.07Zm-13.478 2.207q-1.745 0-3.153-.78A5.8 5.8 0 0 1 60 19.3q-.804-1.448-.805-3.342 0-1.873.828-3.322a5.7 5.7 0 0 1 2.258-2.229q1.432-.78 3.198-.78c1.766 0 2.244.26 3.198.78a5.7 5.7 0 0 1 2.259 2.23q.827 1.448.827 3.32 0 1.873-.85 3.322a5.93 5.93 0 0 1-2.325 2.25q-1.455.78-3.22.781Zm0-2.207a3.74 3.74 0 0 0 1.834-.468q.872-.468 1.41-1.404.536-.936.536-2.273t-.515-2.252q-.514-.936-1.364-1.404a3.74 3.74 0 0 0-1.834-.468 3.74 3.74 0 0 0-1.833.468q-.828.468-1.32 1.404-.492.915-.492 2.252 0 1.983 1.007 3.076 1.028 1.07 2.571 1.07ZM51.89 22.311q-1.745 0-3.154-.78a5.8 5.8 0 0 1-2.214-2.23q-.805-1.448-.805-3.342 0-1.873.828-3.322a5.7 5.7 0 0 1 2.258-2.229q1.432-.78 3.198-.78c1.766 0 2.244.26 3.198.78a5.7 5.7 0 0 1 2.259 2.23q.827 1.448.827 3.32 0 1.873-.85 3.322a5.93 5.93 0 0 1-2.325 2.25q-1.455.78-3.22.781m0-2.207a3.74 3.74 0 0 0 1.833-.468q.873-.468 1.409-1.404.537-.936.537-2.273t-.515-2.252q-.514-.936-1.364-1.404a3.74 3.74 0 0 0-1.834-.468q-.984 0-1.833.468-.828.468-1.32 1.404-.492.915-.492 2.252 0 1.983 1.007 3.076 1.029 1.07 2.571 1.07Zm-11.95-.044h5.255v2.05h-7.804V6.62h2.549z"/><path fill-rule="evenodd" d="M67.719 24.393a3.68 3.68 0 0 0 1.317-1.965l2.464.658a6.2 6.2 0 0 1-2.228 3.324 6.25 6.25 0 0 1-7.596 0 6.2 6.2 0 0 1-2.228-3.324l2.464-.658c.21.782.673 1.472 1.317 1.965a3.696 3.696 0 0 0 4.49 0" clip-rule="evenodd"/></g><defs><clipPath id="a"><path fill="#fff" d="M0 0h152v30H0z"/></clipPath></defs></svg>