<svg xmlns="http://www.w3.org/2000/svg" width="187" height="30" fill="none"><g fill="#0D0D0D" clip-path="url(#a)"><path d="M29.44 24c4.977 0 9.012-4.03 9.012-9s-4.035-9-9.013-9a9.01 9.01 0 0 0-8.967 8.094 16.9 16.9 0 0 0-5.867-1.46C15.741 5.475 21.95 0 29.439 0c8.296 0 15.02 6.716 15.02 15 0 7.982-6.243 14.508-14.118 14.973V30h-9.899v-1.31c0-1.7-.702-3.353-1.99-4.59-1.29-1.24-3.063-1.955-4.934-1.955s-3.644.715-4.934 1.955c-1.288 1.237-1.99 2.89-1.99 4.59V30H0v-1.341c0-3.506 1.457-6.841 4.005-9.28 2.467-2.36 5.762-3.696 9.191-3.775a14 14 0 0 1 .572-.002c3.455.062 6.778 1.401 9.263 3.778A13 13 0 0 1 26.147 24h3.292Z"/><path d="M16.28 26.193c.732.636 1.143 1.499 1.143 2.398V30h-7.81v-1.409c0-.899.411-1.762 1.144-2.398s1.725-.993 2.761-.993 2.03.357 2.761.993Zm16.6-12.666a1.965 1.965 0 0 1-1.966-1.963v-.491a1.474 1.474 0 0 0-2.95 0v.49c0 1.085-.88 1.964-1.965 1.964h-.492a1.474 1.474 0 1 0 0 2.946h.491c1.086 0 1.967.879 1.967 1.963v.491a1.474 1.474 0 0 0 2.95 0v-.49c0-1.085.88-1.964 1.965-1.964h.492a1.474 1.474 0 1 0 0-2.946zM8.411 2.4c0 1.325 1.076 2.4 2.404 2.4h.6a1.801 1.801 0 1 1 0 3.6h-.6a2.4 2.4 0 0 0-2.404 2.4v.6a1.801 1.801 0 0 1-3.605 0v-.6c0-1.325-1.075-2.4-2.403-2.4h-.6a1.801 1.801 0 1 1 0-3.6h.6a2.4 2.4 0 0 0 2.404-2.4v-.6a1.801 1.801 0 0 1 3.604 0zm171.288 7.53c4.513 0 6.691 3.148 6.691 6.794v6.848h-4.724v-6.034c0-1.653-.603-3.017-2.334-3.017s-2.31 1.364-2.31 3.017v6.034h-4.723v-6.034c0-1.653-.577-3.017-2.309-3.017s-2.335 1.364-2.335 3.017v6.034h-4.724v-6.848c0-3.646 2.178-6.795 6.692-6.795 2.466 0 4.25.971 5.064 2.571.866-1.6 2.755-2.57 5.012-2.57m-25.255 9.444c1.522 0 2.178-1.39 2.178-3.043v-5.877h4.723v6.454c0 3.857-2.257 7.058-6.901 7.058s-6.901-3.201-6.901-7.058v-6.454h4.723v5.877c0 1.653.656 3.043 2.178 3.043m-13.846 4.618c-2.965 0-4.88-1.023-6.009-3.017L138 19.059c.472.84 1.181 1.26 2.362 1.26.971 0 1.417-.341 1.417-.761 0-1.6-6.927.026-6.927-5.064 0-2.466 2.099-4.46 5.668-4.46 3.121 0 4.828 1.522 5.589 2.991l-3.412 1.942c-.289-.787-1.181-1.26-2.073-1.26-.682 0-1.049.289-1.049.682 0 1.627 6.927.132 6.927 5.064 0 2.755-2.703 4.539-5.904 4.539m-16.501 5.615h-4.723v-12.62c0-4.014 3.017-6.927 7.215-6.927 4.093 0 7.216 3.122 7.216 6.927 0 4.198-2.781 6.979-6.954 6.979-.97 0-1.941-.289-2.754-.735zm2.492-10.075c1.495 0 2.493-1.155 2.493-2.519 0-1.39-.998-2.519-2.493-2.519-1.496 0-2.492 1.129-2.492 2.519 0 1.364.996 2.519 2.492 2.519M114.642 9.063c-1.548 0-2.834-1.285-2.834-2.833s1.286-2.834 2.834-2.834 2.834 1.286 2.834 2.834-1.286 2.833-2.834 2.833m-2.362 1.39h4.724v13.12h-4.724zm-9.061 13.513c-4.094 0-7.217-3.149-7.217-6.98 0-3.804 3.123-6.952 7.217-6.952s7.215 3.148 7.215 6.953c0 3.83-3.122 6.979-7.215 6.979m0-4.434c1.495 0 2.492-1.155 2.492-2.519 0-1.39-.997-2.545-2.492-2.545s-2.493 1.155-2.493 2.545c0 1.364.997 2.519 2.493 2.519M87.084 30c-3.254 0-5.615-1.443-6.823-4.014l3.91-2.1c.42.893 1.208 1.811 2.834 1.811 1.706 0 2.834-1.075 2.965-2.964-.63.55-1.626.97-3.123.97-3.646 0-6.586-2.807-6.586-6.742 0-3.805 3.123-6.9 7.217-6.9 4.198 0 7.215 2.912 7.215 6.926v5.195c0 4.722-3.28 7.818-7.609 7.818m.315-10.73c1.417 0 2.492-.971 2.492-2.414 0-1.417-1.075-2.362-2.492-2.362-1.391 0-2.493.945-2.493 2.362 0 1.443 1.102 2.413 2.493 2.413ZM72.25 23.966c-4.094 0-7.216-3.149-7.216-6.98 0-3.804 3.122-6.952 7.216-6.952 4.093 0 7.215 3.148 7.215 6.953 0 3.83-3.122 6.979-7.215 6.979m0-4.434c1.495 0 2.492-1.155 2.492-2.519 0-1.39-.997-2.545-2.492-2.545s-2.493 1.155-2.493 2.545c0 1.364.997 2.519 2.493 2.519M56.432 5.863v13.249h7.82v4.46h-8.475c-2.992 0-4.199-1.574-4.199-4.066V5.863z"/></g><defs><clipPath id="a"><path fill="#fff" d="M0 0h187v30H0z"/></clipPath></defs></svg>