<svg xmlns="http://www.w3.org/2000/svg" width="166" height="30" fill="none"><g fill="#0D0D0D" clip-path="url(#a)"><path fill-rule="evenodd" d="M28.805.703a2.535 2.535 0 0 1 3.471-.031l.093.09.315.331c3.191 3.444 4.38 7.457 4.075 11.376-.31 3.975-2.138 7.723-4.688 10.685-2.55 2.96-5.952 5.29-9.631 6.302-3.725 1.024-7.799.698-11.335-1.806-3-2.125-4.142-5.558-4.22-8.893-1.683-.828-3.454-1.857-5.312-3.11l-.49-.334-.105-.075a2.487 2.487 0 0 1-.528-3.404 2.533 2.533 0 0 1 3.4-.698l.108.07.447.306c1.114.75 2.176 1.4 3.186 1.961.651-2.294 1.73-4.496 3.153-6.311 2.13-2.72 5.325-4.894 9.24-4.57 3.524.293 6.129 2.117 7.473 4.691 1.302 2.493 1.322 5.492.184 8.071-1.16 2.63-3.515 4.82-6.902 5.722-2.438.65-5.294.605-8.516-.265v.002a28 28 0 0 1-4.032-1.446c-.316-.14-.59.073 0 .443 1.659 1.181 3.996 2.171 4.672 2.504.32.518.716.944 1.17 1.265 2.09 1.481 4.537 1.752 7.06 1.058 2.57-.707 5.147-2.411 7.145-4.731s3.284-5.097 3.496-7.822c.2-2.572-.54-5.214-2.768-7.614l-.22-.232-.088-.095a2.486 2.486 0 0 1 .147-3.44m-9.242 6.872c-1.616-.134-3.323.72-4.84 2.655-1.154 1.474-2.028 3.39-2.473 5.36 3.173 1.088 5.538 1.096 7.181.658 1.902-.507 3.043-1.655 3.592-2.899.571-1.294.513-2.705-.041-3.766-.511-.979-1.54-1.852-3.419-2.008" clip-rule="evenodd"/><path d="M103.438 10.202c-1.404 0-2.306-1.057-2.11-2.476.195-1.419 1.388-2.476 2.792-2.476s2.306 1.057 2.11 2.476c-.195 1.419-1.388 2.476-2.792 2.476m-3.831 13.902 1.756-12.741h3.83l-1.756 12.74z"/><path fill-rule="evenodd" d="m106.34 17.862-1.611 11.684h3.831l.941-6.835c.636 1.135 1.831 1.728 3.337 1.728 2.86 0 6.42-2.115 7.031-6.551.565-4.101-1.863-6.86-5.872-6.86-3.856 0-7.067 2.553-7.657 6.834m9.669-.129c-.252 1.831-1.601 3.095-3.337 3.095s-2.737-1.264-2.485-3.095 1.602-3.095 3.337-3.095c1.737 0 2.738 1.264 2.485 3.095" clip-rule="evenodd"/><path d="M124.97 24.439c-3.243 0-5.095-1.754-4.809-4.204h3.779c-.067.67.372 1.006 1.419 1.006 1.174 0 1.615-.413 1.689-.954.11-.795-.675-.915-1.716-1.075h-.003l-.222-.035c-1.701-.258-4.5-.696-4.077-3.765.355-2.58 2.621-4.385 5.762-4.385s4.829 1.832 4.589 4.127h-3.728c-.021-.593-.485-.928-1.251-.928-.944 0-1.395.49-1.466 1.005-.102.739.719.867 1.793 1.034l.155.024c1.777.258 4.493.748 4.077 3.765-.362 2.631-2.749 4.385-5.991 4.385m21.634-7.505-.987 7.17h3.83l.987-7.17c.236-1.703 1.134-2.296 2.283-2.296 1.124 0 1.859.593 1.624 2.296l-.988 7.17h3.83l.988-7.17c.235-1.703 1.134-2.296 2.257-2.296 1.149 0 1.885.593 1.65 2.296l-.988 7.17h3.83l.989-7.17c.564-4.101-1.536-5.907-4.6-5.907-1.813 0-3.39.697-4.519 2.038-.76-1.341-2.171-2.038-3.959-2.038-3.064 0-5.661 1.806-6.227 5.907m-14.227 1.031c-.593 4.308 1.611 6.474 5.339 6.474 3.727 0 6.531-2.192 7.122-6.474l.909-6.602h-3.83l-.909 6.602c-.277 2.012-1.365 2.863-2.795 2.863s-2.283-.85-2.006-2.863l.91-6.602h-3.83z"/><path fill-rule="evenodd" d="M85.38 17.733c-.532 3.869 1.886 6.706 5.869 6.706s7.182-2.837 7.716-6.706-1.885-6.706-5.868-6.706-7.183 2.837-7.717 6.706m9.703 0c-.252 1.831-1.601 3.095-3.337 3.095s-2.737-1.264-2.485-3.095 1.602-3.095 3.338-3.095 2.737 1.264 2.484 3.095M73.186 23.24c-1.548-1.183-2.315-3.154-1.99-5.507.532-3.869 3.732-6.706 7.715-6.706s6.401 2.837 5.869 6.706c-.516 3.737-3.519 6.511-7.312 6.696.893.513 2.191.928 3.145 1.233.319.102.599.191.813.268.866.219 1.419 1.034 1.285 2.006-.157 1.14-1.199 2.064-2.328 2.064h-6.129c-2.257 0-3.831-1.848-3.517-4.128h6.536c-1.493-.583-3.072-1.75-4.087-2.631Zm4.375-2.412c1.736 0 3.085-1.264 3.337-3.095s-.748-3.095-2.484-3.095-3.085 1.264-3.338 3.095c-.252 1.831.749 3.095 2.485 3.095M57.01 17.733c-.533 3.869 1.885 6.706 5.868 6.706s7.183-2.837 7.716-6.706-1.885-6.706-5.868-6.706-7.183 2.837-7.716 6.706m9.703 0c-.253 1.831-1.601 3.095-3.338 3.095-1.736 0-2.736-1.264-2.484-3.095s1.6-3.095 3.337-3.095 2.737 1.264 2.485 3.095" clip-rule="evenodd"/><path d="M43.565 24.104 45.89 7.236h4.136l-1.791 12.999h7.89l-.533 3.869z"/></g><defs><clipPath id="a"><path fill="#fff" d="M0 0h166v30H0z"/></clipPath></defs></svg>