<svg xmlns="http://www.w3.org/2000/svg" width="179" height="30" fill="none"><g fill="#0D0D0D" clip-path="url(#a)"><path d="M156.698 24.096V9.162h3.908v2.658h.187q.467-1.323 1.56-2.084 1.094-.761 2.601-.761 1.534 0 2.601.774 1.081.762 1.441 2.07h.16q.453-1.294 1.654-2.07 1.2-.774 2.827-.774 2.081 0 3.388 1.322 1.321 1.323 1.321 3.754v10.045h-4.135v-9.217q0-1.255-.667-1.87-.654-.615-1.64-.615-1.121 0-1.761.722-.627.708-.627 1.87v9.11h-4.001v-9.324q0-1.082-.627-1.723-.627-.655-1.641-.655a2.26 2.26 0 0 0-1.24.348 2.45 2.45 0 0 0-.867.961q-.32.601-.32 1.443v8.95zm-5.879-6.346V9.163h4.121v14.934h-3.961v-2.712h-.16a4.57 4.57 0 0 1-1.667 2.11q-1.161.802-2.841.789-1.495 0-2.641-.668-1.134-.681-1.774-1.937-.627-1.255-.627-3.006v-9.51h4.121v8.79q0 1.308.708 2.083.707.762 1.88.748.747 0 1.387-.334a2.7 2.7 0 0 0 1.04-1.029q.414-.68.414-1.67Zm-10.947-4.327-3.776.227q-.146-.708-.786-1.216-.64-.52-1.721-.52-.96 0-1.614.4-.64.4-.64 1.069 0 .534.414.921.426.375 1.453.588l2.708.535q2.174.44 3.241 1.429 1.067.988 1.067 2.605 0 1.482-.854 2.591-.853 1.095-2.347 1.723-1.494.615-3.428.615-2.961 0-4.721-1.243-1.749-1.242-2.041-3.366l4.041-.214q.2.91.907 1.376.708.468 1.814.468 1.08 0 1.748-.428.68-.427.68-1.082 0-1.109-1.921-1.496l-2.574-.534q-2.174-.44-3.242-1.51-1.066-1.068-1.066-2.738 0-1.443.787-2.484.787-1.043 2.2-1.603 1.427-.561 3.335-.561 2.828 0 4.441 1.202 1.627 1.188 1.895 3.246M111.851 29.68V9.161h4.055v2.524h.186a5.6 5.6 0 0 1 .801-1.242q.52-.628 1.36-1.042.841-.427 2.081-.427 1.64 0 3.001.855 1.374.84 2.2 2.55.828 1.71.827 4.275 0 2.486-.8 4.208-.8 1.71-2.174 2.592-1.36.88-3.068.881-1.2 0-2.04-.4-.84-.402-1.374-1.002a5.8 5.8 0 0 1-.814-1.23h-.12v7.975h-4.121Zm7.162-8.63q1.014 0 1.708-.56.694-.562 1.053-1.55.36-1.002.36-2.298t-.36-2.27q-.347-.99-1.04-1.55-.694-.561-1.721-.561-1 0-1.706.547-.695.535-1.068 1.523-.36.975-.36 2.311 0 1.323.373 2.311.374.988 1.068 1.55.707.547 1.693.547m-13.042 3.046V9.162h4.122v14.934zm2.054-16.844a2.2 2.2 0 0 1-1.573-.615q-.654-.615-.654-1.483 0-.867.654-1.469.653-.615 1.573-.614.934 0 1.588.614.653.6.653 1.47 0 .867-.653 1.482-.654.615-1.588.615M97.492 24.39q-2.255 0-3.908-.962a6.6 6.6 0 0 1-2.535-2.698q-.88-1.737-.88-4.035 0-2.323.88-4.047a6.5 6.5 0 0 1 2.535-2.698q1.653-.975 3.908-.975 2.267 0 3.908.975a6.4 6.4 0 0 1 2.533 2.698q.895 1.724.895 4.047 0 2.298-.895 4.035a6.5 6.5 0 0 1-2.533 2.698q-1.641.962-3.908.962m.026-3.233q1.028 0 1.72-.574.694-.588 1.041-1.603.36-1.015.36-2.311 0-1.31-.36-2.311-.347-1.002-1.04-1.576t-1.721-.575q-1.04 0-1.747.575-.694.574-1.053 1.576-.347 1.002-.347 2.31 0 1.297.347 2.312.36 1.014 1.053 1.603.707.574 1.747.574M81.755 30q-3.014 0-4.721-1.202-1.708-1.189-2.081-2.966l3.815-.507q.172.454.546.841t1 .615q.628.24 1.535.24 1.347 0 2.227-.654.88-.642.88-2.178v-2.738h-.173q-.267.615-.814 1.175-.546.561-1.4.909-.855.347-2.041.347-1.68 0-3.054-.775-1.361-.788-2.187-2.404-.814-1.617-.814-4.088 0-2.55.827-4.247.84-1.698 2.213-2.538a5.6 5.6 0 0 1 3.015-.855q1.254 0 2.094.427.854.414 1.387 1.042.534.629.8 1.242h.16V9.162h4.068v15.094q0 1.897-.933 3.18-.933 1.281-2.574 1.923-1.64.64-3.775.64Zm.08-9.23q1.494 0 2.308-1.11.826-1.107.826-3.071 0-1.31-.373-2.271-.36-.975-1.053-1.51-.694-.547-1.708-.547t-1.72.56q-.694.548-1.054 1.524-.36.975-.36 2.244 0 1.282.36 2.23.36.936 1.053 1.443.707.508 1.721.508m-15.229 3.62q-2.253 0-3.908-.962a6.6 6.6 0 0 1-2.534-2.698q-.88-1.737-.88-4.035 0-2.323.88-4.047a6.5 6.5 0 0 1 2.534-2.698q1.654-.975 3.908-.975 2.268 0 3.908.975a6.4 6.4 0 0 1 2.534 2.698q.894 1.724.894 4.047 0 2.298-.894 4.035a6.5 6.5 0 0 1-2.534 2.698q-1.64.962-3.908.962m.027-3.233q1.027 0 1.72-.574.695-.588 1.04-1.603.36-1.015.36-2.311 0-1.31-.36-2.311-.345-1.002-1.04-1.576-.693-.575-1.72-.575-1.04 0-1.747.575-.694.574-1.054 1.576-.347 1.002-.347 2.31 0 1.297.347 2.312.36 1.014 1.054 1.603.706.574 1.747.574m-20.604 2.939V4.193h4.188v16.43h8.523v3.473zm-18.708 5.172c4.7-.096 8.479-3.946 8.479-8.679a8.7 8.7 0 0 0-2.536-6.136L18.841 0v8.983a5.67 5.67 0 0 0 1.656 4.006l3.378 3.385.01.01 5.664 5.676a.473.473 0 0 1 0 .668.47.47 0 0 1-.666 0L26.93 20.77H8.87l-1.953 1.957a.47.47 0 0 1-.666 0 .473.473 0 0 1 0-.668l5.665-5.677.009-.009 3.378-3.385a5.67 5.67 0 0 0 1.656-4.006V0L2.537 14.453A8.7 8.7 0 0 0 0 20.588c0 4.733 3.78 8.583 8.479 8.68z"/></g><defs><clipPath id="a"><path fill="#fff" d="M0 0h179v30H0z"/></clipPath></defs></svg>