<svg xmlns="http://www.w3.org/2000/svg" width="167" height="30" fill="none"><g fill="#0D0D0D" clip-path="url(#a)"><path fill-rule="evenodd" d="M0 10.465v11.163h3.494a2.8 2.8 0 0 1 2.582 1.723c.14.338.213.701.213 1.068v3.488h8.385l10.48-10.465V6.279h-3.493a2.8 2.8 0 0 1-2.582-1.723 2.8 2.8 0 0 1-.213-1.068V0h-8.385zM11.879 20.93H6.987v-7.674l6.29-6.28h4.89v7.675l-6.288 6.28Z" clip-rule="evenodd"/><path d="M161.108 8.544q2.647 0 4.257 1.632Q167 11.782 167 14.686v8.421h-3.633v-7.93q0-1.683-.857-2.565-.856-.906-2.336-.907-1.479 0-2.362.907-.856.882-.856 2.566v7.93h-3.633v-7.93q0-1.684-.857-2.566-.857-.906-2.336-.907-1.505 0-2.387.907-.857.882-.857 2.566v7.93h-3.634V8.75h3.634v1.736a4.86 4.86 0 0 1 1.791-1.425 5.7 5.7 0 0 1 2.439-.518q1.687 0 3.011.725a4.9 4.9 0 0 1 2.05 2.022q.702-1.245 2.024-1.996 1.35-.75 2.907-.751Zm-20.532.207v14.356h-3.66v-1.814q-.7.934-1.842 1.477a5.7 5.7 0 0 1-2.44.519q-1.688 0-2.985-.7-1.297-.726-2.05-2.099-.727-1.4-.726-3.317V8.751h3.633v7.904q0 1.71.856 2.643.857.907 2.336.907 1.506 0 2.362-.907.856-.933.856-2.643V8.75zM119.27 23.34q-1.764 0-3.166-.622-1.403-.647-2.232-1.736a4.4 4.4 0 0 1-.883-2.41h3.66q.103.829.805 1.374.725.544 1.79.544 1.038 0 1.609-.415.597-.414.597-1.062 0-.7-.726-1.037-.701-.362-2.259-.777-1.608-.39-2.647-.804a4.7 4.7 0 0 1-1.765-1.27q-.726-.855-.726-2.306 0-1.192.675-2.176.7-.985 1.972-1.555 1.297-.57 3.036-.57 2.57 0 4.101 1.295 1.532 1.27 1.687 3.447h-3.478q-.077-.855-.726-1.348-.623-.518-1.687-.518-.987 0-1.532.363a1.16 1.16 0 0 0-.519 1.01q0 .726.727 1.115.727.363 2.258.751 1.557.39 2.569.804a4.4 4.4 0 0 1 1.74 1.295q.752.855.778 2.28 0 1.245-.701 2.23-.675.984-1.972 1.554-1.272.544-2.985.544m-18.55-12.516q.7-.984 1.921-1.633 1.245-.673 2.828-.673 1.843 0 3.323.907 1.504.906 2.362 2.591.882 1.659.881 3.861 0 2.203-.881 3.913-.858 1.684-2.362 2.617-1.48.933-3.323.933-1.582 0-2.802-.648-1.194-.647-1.947-1.632v8.888h-3.634V8.751h3.634zm7.604 5.053q0-1.296-.545-2.228-.519-.96-1.401-1.452a3.7 3.7 0 0 0-1.869-.492 3.63 3.63 0 0 0-1.868.518q-.858.493-1.402 1.451-.519.96-.519 2.255 0 1.296.519 2.254.544.96 1.402 1.478a3.8 3.8 0 0 0 1.868.492q1.013 0 1.869-.518a3.73 3.73 0 0 0 1.401-1.477q.545-.96.545-2.28ZM92.614 7.04q-.96 0-1.609-.595a2.08 2.08 0 0 1-.623-1.53q0-.906.623-1.502.65-.622 1.609-.622c.959 0 1.168.207 1.583.622q.649.595.65 1.503a2.04 2.04 0 0 1-.65 1.529q-.623.596-1.583.596Zm1.79 1.71v14.357h-3.633V8.751zM81.513 23.34q-2.076 0-3.736-.907a6.8 6.8 0 0 1-2.622-2.617q-.934-1.685-.934-3.887t.96-3.887a6.76 6.76 0 0 1 2.673-2.591q1.688-.933 3.764-.933c2.076 0 2.638.31 3.763.933a6.6 6.6 0 0 1 2.647 2.59q.986 1.686.986 3.888c0 2.202-.337 2.764-1.012 3.887a6.9 6.9 0 0 1-2.7 2.617q-1.686.907-3.789.907m0-3.161a3.8 3.8 0 0 0 1.844-.467q.882-.493 1.4-1.45.52-.96.52-2.333 0-2.047-1.09-3.136-1.065-1.114-2.621-1.114t-2.622 1.114q-1.037 1.089-1.037 3.136t1.011 3.161q1.04 1.089 2.595 1.089M65.872 23.34q-2.077 0-3.738-.907a6.8 6.8 0 0 1-2.621-2.617q-.934-1.685-.934-3.887t.96-3.887a6.76 6.76 0 0 1 2.673-2.591q1.688-.933 3.763-.933 2.077 0 3.764.933a6.6 6.6 0 0 1 2.647 2.59q.986 1.686.986 3.888c0 2.202-.337 2.764-1.012 3.887a6.9 6.9 0 0 1-2.7 2.617q-1.686.907-3.788.907m0-3.161q.985 0 1.842-.467.883-.493 1.402-1.45.519-.96.519-2.333 0-2.047-1.09-3.136-1.064-1.114-2.621-1.114-1.558 0-2.622 1.114-1.038 1.089-1.038 3.136t1.012 3.161q1.038 1.089 2.596 1.089M50.23 23.34q-2.077 0-3.738-.907a6.8 6.8 0 0 1-2.621-2.617q-.934-1.685-.934-3.887t.96-3.887A6.76 6.76 0 0 1 46.57 9.45q1.688-.933 3.763-.933t3.764.933a6.6 6.6 0 0 1 2.647 2.59q.986 1.686.986 3.888c0 2.202-.337 2.764-1.012 3.887a6.9 6.9 0 0 1-2.7 2.617q-1.686.907-3.788.907Zm0-3.161q.986 0 1.842-.467.883-.493 1.402-1.45.519-.96.519-2.333 0-2.047-1.09-3.136-1.065-1.114-2.622-1.114t-2.621 1.114q-1.038 1.089-1.038 3.136t1.012 3.161q1.038 1.089 2.596 1.089m-13.756.051h5.97v2.877H32.84V5.02h3.633v15.212Z"/><path d="M59.538 25.035a6.92 6.92 0 0 0 6.554 4.702h.38c3.818 0 6.913-3.09 6.913-6.903v-.39h-3.748v.39a3.163 3.163 0 0 1-3.166 3.16h-.379a3.16 3.16 0 0 1-2.271-.959z"/></g><defs><clipPath id="a"><path fill="#fff" d="M0 0h167v30H0z"/></clipPath></defs></svg>