<svg xmlns="http://www.w3.org/2000/svg" width="157" height="30" fill="none"><g fill="#0D0D0D" clip-path="url(#a)"><path d="M72.757 3.001c-.243 1.72.876 3.001 2.618 3.001a3.5 3.5 0 0 0 3.465-3C79.083 1.281 77.964 0 76.222 0a3.5 3.5 0 0 0-3.465 3.001M72.8 7.41l-1.494 10.596 4.778-.183 1.469-10.414z"/><path fill-rule="evenodd" d="M60.25 23.26c3.77 0 6.974-2 8.575-5.03l2.435.1-.638 4.523h4.753l.61-4.331 2.52.102-1.527 10.825h4.753l1.168-8.284c.788 1.375 2.27 2.094 4.14 2.094 2.527 0 5.495-1.3 7.268-3.99l1.82.073c.31 2.338 2.497 3.917 5.965 3.917 4.023 0 6.984-2.125 7.434-5.314.517-3.658-2.853-4.252-5.059-4.565l-.192-.029c-1.334-.203-2.351-.357-2.225-1.252.088-.626.647-1.22 1.819-1.22.951 0 1.527.407 1.553 1.126h4.625c.298-2.783-1.797-5.002-5.694-5.002s-6.709 2.188-7.15 5.314c-.524 3.72 2.949 4.252 5.059 4.565l.117.017.162.025h.002c1.29.193 2.264.339 2.128 1.302-.093.657-.639 1.157-2.096 1.157-1.299 0-1.844-.407-1.761-1.22H67.18l1.714-.066c.462-.907.78-1.905.93-2.966.662-4.69-2.338-8.128-7.28-8.128l-.23.002.016-.01H47.347a43 43 0 0 0-.61 0h.61c3.848.026 11.18.512 10.236 1.304a9.33 9.33 0 0 0-4.614 6.832c-.66 4.69 2.34 8.128 7.282 8.128Zm.618-4.377c2.154 0 3.828-1.532 4.14-3.752.314-2.22-.927-3.751-3.082-3.751s-3.828 1.531-4.14 3.751c-.314 2.22.928 3.752 3.082 3.752" clip-rule="evenodd"/><path d="M90.974 15.131a4.6 4.6 0 0 1-.875 2.157l5.257-.2c.18-.552.319-1.142.407-1.77.701-4.97-2.312-8.315-7.286-8.315-4.784 0-8.769 3.095-9.501 8.284l-.344 2.439 5.507-.21c-.375-.63-.521-1.446-.389-2.385.314-2.22 1.987-3.751 4.142-3.751 2.154 0 3.395 1.531 3.082 3.751m37.072 5.349.891-6.318c.701-4.97 3.925-7.16 7.727-7.16 2.217 0 3.967.845 4.91 2.47 1.402-1.625 3.359-2.47 5.608-2.47 3.802 0 6.408 2.19 5.707 7.16l-1.226 8.691h-4.752l1.226-8.691c.291-2.063-.622-2.782-2.047-2.782-1.395 0-2.509.719-2.801 2.782l-1.226 8.691h-4.752l1.226-8.691c.291-2.063-.621-2.782-2.015-2.782-1.426 0-2.542.719-2.832 2.782l-1.226 8.691h-2.848l.001.002h-6.659c2.763-.28 4.886-1.033 5.083-2.382z"/><path d="M117.907 23.26c-4.626 0-7.36-2.627-6.624-7.848l.832-5.898c.133-1.523-1.071-1.714-3.727-2.095h4.022l.002-.01h4.753l-1.129 8.003c-.344 2.439.714 3.47 2.488 3.47s3.124-1.031 3.468-3.47l1.129-8.003h4.752l-1.129 8.003c-.732 5.19-4.211 7.847-8.837 7.847Zm-80.935-2.235a6.2 6.2 0 0 1-.866-1.21l-3.393-.185c-1.755 2.23-4.512 3.63-7.665 3.63-4.942 0-7.942-3.44-7.28-8.129.66-4.69 4.63-8.128 9.573-8.128s7.943 3.439 7.281 8.128a9.4 9.4 0 0 1-.944 2.994l-6.113.31c1.19-.609 2.03-1.798 2.241-3.304.314-2.22-.928-3.751-3.082-3.751s-3.828 1.531-4.141 3.751c-.234 1.662.402 2.938 1.64 3.474l-5.363.273h24.524v.003c2.098-.054 3.716-1.57 4.024-3.75.313-2.22-.928-3.751-3.083-3.751-2.154 0-3.828 1.531-4.14 3.751-.152 1.07.058 1.979.557 2.634l-5.294.27c-.193-.891-.226-1.867-.08-2.904.662-4.69 4.632-8.128 9.574-8.128s7.943 3.439 7.282 8.128c-.64 4.53-4.365 7.893-9.073 8.116 1.109.622 2.719 1.125 3.903 1.495.395.123.742.232 1.007.325 1.075.264 1.762 1.253 1.596 2.431C49.462 28.88 48.169 30 46.769 30h-7.605c-2.486 0-4.305-1.765-4.41-4.095l-9.38-.907h9.425v-.001h8.11c-1.854-.708-3.813-2.123-5.073-3.192a6.3 6.3 0 0 1-.863-.779h-.001ZM0 2.407l3.882.616-2.797 19.83h14.923l.661-4.69h-9.79L9.101 2.407zm157 3.501c0 .996-.811 1.804-1.811 1.804s-1.811-.808-1.811-1.804c0-.997.811-1.804 1.811-1.804S157 4.911 157 5.908"/></g><defs><clipPath id="a"><path fill="#fff" d="M0 0h157v30H0z"/></clipPath></defs></svg>