<svg xmlns="http://www.w3.org/2000/svg" width="162" height="30" fill="none"><g fill="#0D0D0D" clip-path="url(#a)"><path d="M12.494 30h-.958c-2.487 0-3.984 0-5.127-.213l6.616-8.761zm10.942-.187C22.313 30 20.841 30 18.464 30h-1.132l-.534-8.977zm6.318-6.06q-.072.344-.175.654A8.2 8.2 0 0 1 27.29 27.9l-7.46-8.366zM2.614 27.81a8.2 8.2 0 0 1-2.193-3.403 6 6 0 0 1-.19-.722l9.762-4.15-7.379 8.274ZM30 18.464c0 .843-.002 1.572-.01 2.213l-8.86-3.423H30zm-21.303-1.21L.008 20.61C.001 19.986 0 19.278 0 18.464v-1.21zM18.464 0c3.122 0 4.683 0 5.943.42a8.18 8.18 0 0 1 5.172 5.173C30 6.853 30 8.414 30 11.536v3.476h-9.368l6.757-2.872-2.005-1.33-6.555 2.53 3.077-4.072-2.213-.605-3.399 3.808-.253-4.29h-2.254l-.257 4.29-3.396-3.808-2.212.605 3.074 4.071-6.552-2.53-2.004 1.33 6.755 2.873H0v-3.476c0-3.122 0-4.683.42-5.943A8.18 8.18 0 0 1 5.594.421C6.853 0 8.414 0 11.536 0zm51.491 23.582c.705 1.322 2.066 2.154 3.82 2.154s3.116-.832 3.82-2.154h2.64c-.873 2.642-3.297 4.407-6.46 4.407s-5.586-1.765-6.459-4.407zM108.377 9.57c4.02 0 6.837 2.765 6.837 6.734 0 4.199-3.124 6.58-6.427 6.58-2.049 0-3.789-.922-4.711-2.56v7.63h-2.433V16.329c0-4.122 2.817-6.76 6.734-6.76Zm.026 2.253c-2.586 0-4.327 1.843-4.327 4.404s1.741 4.404 4.327 4.404c2.611 0 4.353-1.844 4.353-4.404s-1.742-4.404-4.353-4.404M59.294 9.57c3.994 0 6.81 2.816 6.81 6.657 0 3.84-2.816 6.657-6.81 6.657s-6.81-2.817-6.81-6.657S55.3 9.57 59.293 9.57Zm0 2.253c-2.612 0-4.353 1.843-4.353 4.404s1.741 4.404 4.353 4.404 4.353-1.844 4.353-4.404-1.741-4.404-4.353-4.404m14.751-2.247h6.616v2.175h-1.707c1.034 1.159 1.631 2.708 1.631 4.476 0 3.84-2.816 6.657-6.81 6.657-3.995 0-6.811-2.817-6.811-6.657s2.817-6.657 6.81-6.657q.136 0 .271.006m-.27 2.247c-2.612 0-4.353 1.843-4.353 4.404s1.741 4.404 4.353 4.404 4.352-1.844 4.352-4.404-1.741-4.404-4.352-4.404M88.256 9.57c3.994 0 6.811 2.816 6.811 6.657 0 3.84-2.817 6.657-6.81 6.657-3.995 0-6.812-2.817-6.812-6.657s2.817-6.657 6.811-6.657m0 2.253c-2.611 0-4.353 1.843-4.353 4.404s1.742 4.404 4.353 4.404c2.612 0 4.353-1.844 4.353-4.404s-1.741-4.404-4.353-4.404m33.106-2.253c3.022 0 4.891 1.716 4.942 3.892h-2.408c-.076-.973-.972-1.69-2.508-1.69-1.613 0-2.535.768-2.535 1.767 0 1.203 1.332 1.33 2.893 1.536 2.202.281 4.89.691 4.891 3.584 0 2.56-2.074 4.225-5.249 4.226-3.175 0-5.172-1.69-5.249-3.995h2.458c.051 1.05 1.024 1.792 2.791 1.792 1.843 0 2.79-.794 2.79-1.792 0-1.204-1.331-1.358-2.918-1.562-2.202-.282-4.865-.691-4.865-3.585 0-2.483 1.946-4.173 4.967-4.173m9.125 6.938c0 2.74 1.512 4.123 3.816 4.123s3.815-1.383 3.815-4.123V9.902h2.432v6.606c0 4.2-2.509 6.376-6.247 6.376s-6.248-2.151-6.248-6.376V9.902h2.432zm-88.125 3.637h9.397v2.406H39.75V5.806h2.612v14.338Zm56.97 2.406h-2.433V9.902h2.433v12.65ZM156.57 9.57c2.97 0 5.224 1.792 5.224 5.659v7.322h-2.433V15.23c0-2.356-1.254-3.406-3.021-3.406-1.715 0-2.997 1.101-2.997 3.405v7.323h-2.432V15.23c0-2.305-1.306-3.406-3.021-3.406-1.767 0-3.022 1.05-3.022 3.405v7.323h-2.432V15.23c0-3.867 2.254-5.66 5.224-5.66 1.946 0 3.584.871 4.454 2.51.871-1.639 2.484-2.51 4.456-2.51M98.103 4.5c.973 0 1.69.717 1.69 1.69s-.717 1.716-1.69 1.716-1.69-.743-1.69-1.716.717-1.69 1.69-1.69"/></g><defs><clipPath id="a"><path fill="#fff" d="M0 0h162v30H0z"/></clipPath></defs></svg>