<svg xmlns="http://www.w3.org/2000/svg" width="195" height="30" fill="none"><g fill="#0D0D0D" clip-path="url(#a)"><path d="M25.293 27.436A16.072 16.072 0 0 0 2.564 4.707l5.304 5.304c.837.836 2.188.795 3.253.278a6.427 6.427 0 0 1 8.59 8.59c-.516 1.065-.558 2.416.279 3.253zM22.5 30h-7.868a4.3 4.3 0 0 1-3.03-1.255L1.255 18.398A4.3 4.3 0 0 1 0 15.368V7.5zM8.036 30H3.214A3.214 3.214 0 0 1 0 26.786v-4.822zM183.103 5.197c6.33 0 11.483 5.153 11.483 11.483v8.123h-5.602V16.68c0-2.324-1.4-4.341-3.36-5.293v13.416h-5.602V16.68c0-2.324-1.401-4.341-3.362-5.293v13.416h-5.601V5.197h3.081c2.128 0 4.145.616 5.882 1.652V5.197zM168.834 16.68c0 4.482-3.67 8.123-8.123 8.123-4.481 0-8.123-3.641-8.123-8.123V5.197h5.602V16.68a2.51 2.51 0 0 0 2.521 2.521 2.53 2.53 0 0 0 2.521-2.52V5.196h5.602zm-17.954 1.821a6.25 6.25 0 0 1-6.246 6.246h-8.319v-5.602h8.319c.336 0 .645-.28.645-.644 0-.336-.309-.616-.645-.616h-2.268a6.323 6.323 0 0 1-6.33-6.33c0-3.501 2.829-6.358 6.33-6.358h8.234v5.602h-8.234c-.42 0-.729.336-.729.756 0 .392.309.728.729.728h2.268c3.445 0 6.246 2.8 6.246 6.218M127.831 5.197c3.922 0 7.142 3.22 7.142 7.142 0 3.95-3.22 7.142-7.142 7.142h-2.101v5.322h-5.602V5.197zm0 8.683c.841 0 1.54-.673 1.54-1.541 0-.84-.699-1.54-1.54-1.54h-2.101v3.08h2.101Zm-10.224 10.923h-5.602V5.197h5.602zM110.285 15c0 5.406-4.426 9.803-9.804 9.803-5.405 0-9.803-4.397-9.803-9.803 0-5.378 4.398-9.803 9.803-9.803 5.378 0 9.804 4.425 9.804 9.803m-5.602 0c0-2.297-1.905-4.201-4.202-4.201a4.213 4.213 0 0 0-4.201 4.2 4.196 4.196 0 0 0 4.201 4.202c2.297 0 4.202-1.876 4.202-4.201m-15.635-1.26v11.063h-7.002c-5.406 0-9.803-4.397-9.803-9.803 0-5.378 4.397-9.803 9.803-9.803h7.002v5.602h-7.002a4.213 4.213 0 0 0-4.201 4.2 4.195 4.195 0 0 0 4.2 4.202h1.402V13.74zM71.335 15c0 5.406-4.426 9.803-9.803 9.803-5.406 0-9.803-4.397-9.803-9.803 0-5.378 4.397-9.803 9.803-9.803 5.377 0 9.803 4.425 9.803 9.803m-5.602 0c0-2.297-1.905-4.201-4.201-4.201a4.213 4.213 0 0 0-4.202 4.2 4.196 4.196 0 0 0 4.202 4.202c2.296 0 4.2-1.876 4.2-4.201Zm-14.582 4.201v5.602H44.15a5.02 5.02 0 0 1-5.042-5.042V5.197h5.602V19.2h6.442Z"/></g><defs><clipPath id="a"><path fill="#fff" d="M0 0h195v30H0z"/></clipPath></defs></svg>